<svg xmlns="http://www.w3.org/2000/svg" style="display: none;">
    <symbol id="search" viewBox="0 0 24 24">
        <path d="M21.172 24l-7.387-7.387c-1.388.874-3.024 1.387-4.785 1.387-4.971 0-9-4.029-9-9s4.029-9 9-9 9 4.029 9 9c0 1.761-.514 3.398-1.387 4.785l7.387 7.387-2.828 2.828zm-12.172-8c3.859 0 7-3.14 7-7s-3.141-7-7-7-7 3.14-7 7 3.141 7 7 7z"/>
    </symbol>
    <symbol id="arrow-right" viewBox="0 0 24 24">
        <path d="M5 3l3.057-3 11.943 12-11.943 12-3.057-3 9-9z"/>
    </symbol>
    <symbol id="arrow-left" viewBox="0 0 24 24">
        <path d="M16.67 0l2.83 2.829-9.339 9.175 9.339 9.167-2.83 2.829-12.17-11.996z"/>
    </symbol>
    <symbol id="triangle-down" viewBox="0 0 24 24">
        <path d="M12 21l-12-18h24z"/>
    </symbol>
    <symbol id="triangle-down" viewBox="0 0 24 24">
        <path d="M12 21l-12-18h24z"/>
    </symbol>
    <symbol id="double-dot" viewBox="0 0 28 28">
        <circle cx="14" cy="14" r="14" fill="#FBDECE" />
        <circle cx="14" cy="14" r="8" fill="#F3925C" />
    </symbol>
    <symbol id="close" viewBox="0 0 24 24">
        <path d="M13.5333 12.1197C13.468 12.0544 13.468 11.949 13.5333
        11.8837L19.7086 5.70905C20.0993 5.31771 20.0986 4.68438
        19.7073 4.29371C19.316 3.90305 18.6826 3.90371 18.2926
        4.29505L12.118 10.467C12.0526 10.5324 11.9473 10.5324
        11.882 10.467L5.70729 4.29505C5.31663 3.90438 4.68329
        3.90438 4.29329 4.29438C3.90329 4.68438 3.90263 5.31838
        4.29263 5.70905L10.4666 11.8837C10.532 11.949 10.532
        12.0544 10.4666 12.1197L4.29263 18.295C3.90196 18.6857
        3.90263 19.319 4.29263 19.7097C4.68263 20.1004 5.31663
        20.0997 5.70729 19.7097L11.882 13.5344C11.9473 13.469
        12.0526 13.469 12.118 13.5344L18.2926 19.7097C18.6833
        20.1004 19.3166 20.1004 19.7073 19.7097C20.098 19.319
        20.098 18.6857 19.7073 18.295L13.5333 12.1197Z" />
    </symbol>
</svg>
